<?xml version="1.0" encoding="UTF-8"?>
<!DOCTYPE svg PUBLIC "-//W3C//DTD SVG 1.1//EN" "http://www.w3.org/Graphics/SVG/1.1/DTD/svg11.dtd">
<svg xmlns="http://www.w3.org/2000/svg" version="1.1" width="413px" height="413px" style="shape-rendering:geometricPrecision; text-rendering:geometricPrecision; image-rendering:optimizeQuality; fill-rule:evenodd; clip-rule:evenodd" xmlns:xlink="http://www.w3.org/1999/xlink">
<g><path style="opacity:0.012" fill="#2a4134" d="M 353.5,18.5 C 355.781,18.0773 357.448,18.744 358.5,20.5C 356.694,19.9759 355.028,19.3092 353.5,18.5 Z"/></g>
<g><path style="opacity:0.998" fill="#08945c" d="M 353.5,18.5 C 355.028,19.3092 356.694,19.9759 358.5,20.5C 359.167,20.5 359.833,20.5 360.5,20.5C 360.973,21.9063 361.973,22.573 363.5,22.5C 367.922,23.2092 371.588,25.2092 374.5,28.5C 377.167,31.8333 380.167,34.8333 383.5,37.5C 384.833,37.5 385.5,38.1667 385.5,39.5C 390.987,47.286 394.32,55.9527 395.5,65.5C 395.821,159.518 395.488,253.518 394.5,347.5C 387.172,371.5 371.172,385.833 346.5,390.5C 254.167,390.5 161.833,390.5 69.5,390.5C 62.6881,388.725 56.0214,386.225 49.5,383C 43.7075,379.041 38.3742,374.541 33.5,369.5C 30.5049,366.856 28.5049,363.523 27.5,359.5C 25.6037,354.478 23.937,349.478 22.5,344.5C 22.5,344.167 22.5,343.833 22.5,343.5C 22.186,248.488 22.5193,153.488 23.5,58.5C 30.3273,40.3378 42.6607,27.3378 60.5,19.5C 66.2145,18.8552 71.8811,18.0219 77.5,17C 132.161,17.3942 186.828,17.8942 241.5,18.5C 273.184,18.5908 304.851,17.9241 336.5,16.5C 342.297,16.4673 347.963,17.1339 353.5,18.5 Z"/></g>
<g><path style="opacity:0.027" fill="#244a39" d="M 360.5,20.5 C 362.179,20.2852 363.179,20.9519 363.5,22.5C 361.973,22.573 360.973,21.9063 360.5,20.5 Z"/></g>
<g><path style="opacity:0.008" fill="#28342e" d="M 374.5,28.5 C 378.833,30.1667 381.833,33.1667 383.5,37.5C 380.167,34.8333 377.167,31.8333 374.5,28.5 Z"/></g>
<g><path style="opacity:0.199" fill="#206245" d="M 23.5,58.5 C 22.5193,153.488 22.186,248.488 22.5,343.5C 21.7784,343.082 21.2784,342.416 21,341.5C 20.3333,250.167 20.3333,158.833 21,67.5C 21.9728,64.4213 22.8061,61.4213 23.5,58.5 Z"/></g>
<g><path style="opacity:1" fill="#19195f" d="M 312.5,323.5 C 310.777,321.747 309.277,319.747 308,317.5C 307.312,316.668 307.479,316.002 308.5,315.5C 311.319,316.97 313.986,316.804 316.5,315C 314.205,314.016 314.539,313.183 317.5,312.5C 319.134,312.968 320.3,313.968 321,315.5C 321.75,314.874 322.584,314.374 323.5,314C 322.167,313.333 320.833,312.667 319.5,312C 320.634,310.984 320.301,310.317 318.5,310C 319.167,309.667 319.833,309.333 320.5,309C 317.883,308.178 315.216,307.678 312.5,307.5C 312.863,305.089 311.863,303.589 309.5,303C 311.433,302.217 312.933,302.717 314,304.5C 315.976,301.746 315.476,299.412 312.5,297.5C 313.5,296.833 314.5,296.167 315.5,295.5C 314.509,293.877 315.176,292.877 317.5,292.5C 318.631,290.926 318.798,289.259 318,287.5C 316.167,286.333 314.667,284.833 313.5,283C 312.551,282.383 311.718,282.549 311,283.5C 310.911,280.151 309.744,279.651 307.5,282C 308.386,283.217 309.386,284.551 310.5,286C 309.344,287.615 308.011,287.615 306.5,286C 307.863,283.871 307.529,283.371 305.5,284.5C 304.167,283.167 302.833,281.833 301.5,280.5C 300.289,281.274 300.289,282.107 301.5,283C 300.551,283.617 299.718,283.451 299,282.5C 298.683,284.301 298.016,284.634 297,283.5C 296.517,284.448 296.351,285.448 296.5,286.5C 295.5,286.5 294.5,286.5 293.5,286.5C 293.64,288.124 292.973,289.29 291.5,290C 292.126,290.75 292.626,291.584 293,292.5C 293.893,291.289 294.726,291.289 295.5,292.5C 294.562,293.553 293.395,294.22 292,294.5C 291.408,292.961 289.908,291.628 287.5,290.5C 283.008,289.949 278.674,289.282 274.5,288.5C 288.666,288.001 295.666,280.667 295.5,266.5C 296.29,265.391 296.79,264.058 297,262.5C 297.853,264.125 298.853,264.458 300,263.5C 300.636,267.869 302.136,268.369 304.5,265C 302.884,264.385 301.551,263.385 300.5,262C 302.35,259.967 303.016,259.967 302.5,262C 303.572,263.284 304.905,263.617 306.5,263C 305.304,263.654 305.304,264.154 306.5,264.5C 309.605,263.48 312.605,262.313 315.5,261C 314.026,259.684 312.359,258.684 310.5,258C 311.701,257.097 312.535,255.931 313,254.5C 313.333,255.167 313.667,255.833 314,256.5C 315.067,255.809 316.234,255.309 317.5,255C 315.833,254 314.167,253 312.5,252C 314.044,250.813 315.711,250.48 317.5,251C 316.289,251.893 316.289,252.726 317.5,253.5C 321.38,249.578 320.38,247.078 314.5,246C 316.087,245.138 317.754,244.471 319.5,244C 318.167,243 318.167,242 319.5,241C 316.593,241.736 313.593,242.07 310.5,242C 312.221,241.261 313.887,240.427 315.5,239.5C 314.282,238.197 314.615,237.197 316.5,236.5C 314.473,235.307 312.973,233.64 312,231.5C 309.367,231.502 306.867,232.502 304.5,234.5C 303.994,233.176 302.661,232.509 300.5,232.5C 300.435,235.998 299.101,236.498 296.5,234C 297.604,232.869 297.271,232.035 295.5,231.5C 294.667,232.5 293.833,233.5 293,234.5C 292.915,236.085 292.749,237.418 292.5,238.5C 291.5,238 290.5,237.5 289.5,237C 290.846,235.358 290.513,234.691 288.5,235C 287.588,237.488 288.588,239.155 291.5,240C 290.372,242.065 288.706,242.732 286.5,242C 287.711,241.107 287.711,240.274 286.5,239.5C 284.528,240.305 283.028,241.639 282,243.5C 280.933,242.809 279.766,242.309 278.5,242C 281.084,240.006 280.918,239.506 278,240.5C 277.5,240.833 277,241.167 276.5,241.5C 277.326,242.451 277.492,243.451 277,244.5C 276.667,244.167 276.333,243.833 276,243.5C 275,246.167 274,246.167 273,243.5C 272.751,246.177 271.751,248.51 270,250.5C 270.979,248.721 270.646,247.055 269,245.5C 266.871,246.863 266.371,246.529 267.5,244.5C 265.877,243.524 264.543,244.024 263.5,246C 265.439,246.908 266.439,248.408 266.5,250.5C 263.5,250.833 262.167,249.5 262.5,246.5C 259.907,246.221 257.907,245.721 256.5,245C 255.833,245.333 255.167,245.667 254.5,246C 256.061,246.318 257.228,247.151 258,248.5C 261.11,247.327 261.277,247.827 258.5,250C 257.207,250.49 255.873,250.657 254.5,250.5C 254.863,248.089 253.863,246.589 251.5,246C 251.833,245.667 252.167,245.333 252.5,245C 251.234,244.691 250.067,244.191 249,243.5C 247.815,245.844 245.982,246.677 243.5,246C 244.759,245.077 246.092,244.243 247.5,243.5C 246.975,242.808 246.308,242.308 245.5,242C 248.032,241.381 250.365,240.381 252.5,239C 251.833,238.667 251.167,238.333 250.5,238C 251.672,237.581 252.672,236.915 253.5,236C 250.514,236.444 247.847,235.444 245.5,233C 245.833,232.667 246.167,232.333 246.5,232C 245.167,231 243.833,230 242.5,229C 218.167,228.333 193.833,228.333 169.5,229C 167.5,229.667 166.167,231 165.5,233C 162.968,233.619 160.635,234.619 158.5,236C 159.119,237.835 159.286,240.001 159,242.5C 158.49,239.995 156.99,238.495 154.5,238C 154.833,237.667 155.167,237.333 155.5,237C 152.456,236.641 152.122,235.974 154.5,235C 152.598,234.801 151.098,233.967 150,232.5C 149,234.167 147.667,235.5 146,236.5C 145.667,236.167 145.333,235.833 145,235.5C 142.275,238.245 142.275,239.245 145,238.5C 149.251,239.434 149.584,241.1 146,243.5C 144.307,242.816 142.807,241.816 141.5,240.5C 140.692,240.808 140.025,241.308 139.5,242C 140.956,242.423 141.456,243.256 141,244.5C 137.216,243.918 134.549,241.918 133,238.5C 132.871,241.003 131.871,243.003 130,244.5C 127.378,243.161 125.711,241.494 125,239.5C 124.5,240.667 123.667,241.5 122.5,242C 123.673,245.11 123.173,245.277 121,242.5C 120.535,243.931 119.701,245.097 118.5,246C 123.496,248.495 123.496,249.828 118.5,250C 120.595,249.444 120.762,248.944 119,248.5C 117.5,249 116,249.5 114.5,250C 116.359,250.684 118.026,251.684 119.5,253C 118.366,254.016 118.699,254.683 120.5,255C 120.167,255.333 119.833,255.667 119.5,256C 123.506,257.899 123.506,259.233 119.5,260C 120.205,258.443 119.539,257.277 117.5,256.5C 114.601,257.494 113.934,256.494 115.5,253.5C 115,253.167 114.5,252.833 114,252.5C 112.327,254.634 110.16,256.134 107.5,257C 109.545,259.341 111.545,261.674 113.5,264C 114.833,264 116.167,264 117.5,264C 113.422,269.045 113.922,269.545 119,265.5C 118.617,267.438 118.784,269.104 119.5,270.5C 120.176,269.398 120.842,268.398 121.5,267.5C 123.067,285.449 132.401,291.616 149.5,286C 152.023,284.64 154.023,282.807 155.5,280.5C 155.33,281.822 155.663,282.989 156.5,284C 154.787,285.378 153.453,287.045 152.5,289C 153.833,289 155.167,289 156.5,289C 154.114,292.951 150.78,294.451 146.5,293.5C 148.045,292.548 149.712,292.215 151.5,292.5C 151.5,291.5 151.5,290.5 151.5,289.5C 148.646,289.924 145.979,290.924 143.5,292.5C 142.808,291.975 142.308,291.308 142,290.5C 141.823,294.466 141.49,298.466 141,302.5C 139.255,301.044 137.422,299.711 135.5,298.5C 133.205,299.432 130.871,300.265 128.5,301C 129.356,303.41 130.69,304.577 132.5,304.5C 129.924,305.883 130.258,306.717 133.5,307C 131.269,308.147 128.935,309.147 126.5,310C 128.235,310.651 129.902,310.485 131.5,309.5C 131.833,310.167 132.167,310.833 132.5,311.5C 134.792,309.976 136.792,310.309 138.5,312.5C 139.672,312.081 140.672,311.415 141.5,310.5C 140.494,309.604 140.494,308.938 141.5,308.5C 142.328,309.415 143.328,310.081 144.5,310.5C 147.055,311.422 149.388,311.756 151.5,311.5C 149.077,312.729 146.577,313.729 144,314.5C 142.412,312.032 140.578,311.866 138.5,314C 138.957,314.414 139.291,314.914 139.5,315.5C 135.843,318.571 133.843,317.571 133.5,312.5C 130.875,313.764 128.208,314.931 125.5,316C 128.544,316.359 128.878,317.026 126.5,318C 128.167,318.333 129.833,318.667 131.5,319C 130.833,319.333 130.167,319.667 129.5,320C 132.067,322.314 134.733,324.481 137.5,326.5C 138.541,324.009 139.374,324.009 140,326.5C 141.049,325.483 142.216,325.316 143.5,326C 142.742,327.364 143.242,328.531 145,329.5C 147.493,329.096 149.659,327.596 151.5,325C 151.333,323.167 151.167,321.333 151,319.5C 153.316,317.541 155.316,317.541 157,319.5C 157.333,318.5 157.667,317.5 158,316.5C 158.68,318.976 157.847,320.809 155.5,322C 157.301,322.317 157.634,322.984 156.5,324C 157.908,324.315 159.241,323.982 160.5,323C 158.557,321.807 158.724,320.307 161,318.5C 164.162,320.912 163.995,323.245 160.5,325.5C 160.833,325.833 161.167,326.167 161.5,326.5C 162.48,325.019 163.647,323.685 165,322.5C 165.414,322.957 165.914,323.291 166.5,323.5C 167.869,321.876 169.536,321.376 171.5,322C 170.016,323.574 168.349,324.907 166.5,326C 167.667,326.5 168.5,327.333 169,328.5C 169.232,327.263 169.732,326.263 170.5,325.5C 171.91,335.175 168.576,342.675 160.5,348C 147.57,349.609 134.57,349.942 121.5,349C 111.703,344.242 107.536,336.408 109,325.5C 95.489,321.987 87.489,313.32 85,299.5C 84.5,267.168 84.3334,234.835 84.5,202.5C 73.0404,204.524 65.2071,200.19 61,189.5C 60.3333,180.833 60.3333,172.167 61,163.5C 65.5574,152.936 73.224,145.936 84,142.5C 84.0427,120.116 84.7094,97.7831 86,75.5C 89.9228,65.9098 96.7562,59.4098 106.5,56C 175.211,55.0134 243.878,55.3468 312.5,57C 323.256,61.422 330.089,69.2553 333,80.5C 333.5,101.497 333.667,122.497 333.5,143.5C 350.686,148.025 358.686,159.192 357.5,177C 359.307,194.693 351.307,203.193 333.5,202.5C 333.667,234.502 333.5,266.502 333,298.5C 331.083,310.913 324.249,319.246 312.5,323.5 Z"/></g>
<g><path style="opacity:1" fill="#08935c" d="M 126.5,127.5 C 182.542,127.175 238.542,127.508 294.5,128.5C 300.509,131.01 304.676,135.343 307,141.5C 307.667,165.167 307.667,188.833 307,212.5C 304.833,220 300,224.833 292.5,227C 236.5,227.667 180.5,227.667 124.5,227C 117.035,224.868 112.202,220.035 110,212.5C 109.333,189.167 109.333,165.833 110,142.5C 112.679,134.408 118.179,129.408 126.5,127.5 Z"/></g>
<g><path style="opacity:1" fill="#1a1b5b" d="M 287.5,112.5 C 286.91,114.097 285.91,115.431 284.5,116.5C 285.347,118.061 285.014,119.561 283.5,121C 284.328,121.915 285.328,122.581 286.5,123C 285.167,123.667 285.167,124.333 286.5,125C 288.441,125.743 290.274,125.576 292,124.5C 292.662,125.984 293.496,127.317 294.5,128.5C 238.542,127.508 182.542,127.175 126.5,127.5C 134.657,126.671 142.99,126.171 151.5,126C 149.567,125.749 147.734,125.249 146,124.5C 143.115,124.707 140.281,125.04 137.5,125.5C 135.917,123.554 135.417,121.554 136,119.5C 134.022,120.816 132.522,120.316 131.5,118C 132.337,116.989 132.67,115.822 132.5,114.5C 181.792,115.657 231.126,115.824 280.5,115C 282.854,114.153 285.188,113.32 287.5,112.5 Z"/></g>
<g><path style="opacity:1" fill="#08935c" d="M 287.5,112.5 C 285.188,113.32 282.854,114.153 280.5,115C 231.126,115.824 181.792,115.657 132.5,114.5C 122.226,107.846 119.726,98.8457 125,87.5C 127.383,84.7272 130.217,82.5605 133.5,81C 183.5,80.3333 233.5,80.3333 283.5,81C 292.938,85.6196 296.438,93.1196 294,103.5C 292.389,106.938 290.223,109.938 287.5,112.5 Z"/></g>
<g><path style="opacity:0.988" fill="#185d43" d="M 395.5,65.5 C 396.666,157.999 396.832,250.666 396,343.5C 395.79,345.058 395.29,346.391 394.5,347.5C 395.488,253.518 395.821,159.518 395.5,65.5 Z"/></g>
<g><path style="opacity:1" fill="#191860" d="M 295.5,266.5 C 290.803,254.318 282.136,249.818 269.5,253C 259.604,259.044 256.771,267.544 261,278.5C 263.971,283.98 268.471,287.314 274.5,288.5C 278.674,289.282 283.008,289.949 287.5,290.5C 289.908,291.628 291.408,292.961 292,294.5C 293.395,294.22 294.562,293.553 295.5,292.5C 294.726,291.289 293.893,291.289 293,292.5C 292.626,291.584 292.126,290.75 291.5,290C 292.973,289.29 293.64,288.124 293.5,286.5C 294.5,286.5 295.5,286.5 296.5,286.5C 296.351,285.448 296.517,284.448 297,283.5C 298.016,284.634 298.683,284.301 299,282.5C 299.718,283.451 300.551,283.617 301.5,283C 300.289,282.107 300.289,281.274 301.5,280.5C 302.833,281.833 304.167,283.167 305.5,284.5C 307.529,283.371 307.863,283.871 306.5,286C 308.011,287.615 309.344,287.615 310.5,286C 309.386,284.551 308.386,283.217 307.5,282C 309.744,279.651 310.911,280.151 311,283.5C 311.718,282.549 312.551,282.383 313.5,283C 314.667,284.833 316.167,286.333 318,287.5C 318.798,289.259 318.631,290.926 317.5,292.5C 315.176,292.877 314.509,293.877 315.5,295.5C 314.5,296.167 313.5,296.833 312.5,297.5C 315.476,299.412 315.976,301.746 314,304.5C 312.933,302.717 311.433,302.217 309.5,303C 311.863,303.589 312.863,305.089 312.5,307.5C 315.216,307.678 317.883,308.178 320.5,309C 319.833,309.333 319.167,309.667 318.5,310C 320.301,310.317 320.634,310.984 319.5,312C 320.833,312.667 322.167,313.333 323.5,314C 322.584,314.374 321.75,314.874 321,315.5C 320.3,313.968 319.134,312.968 317.5,312.5C 314.539,313.183 314.205,314.016 316.5,315C 313.986,316.804 311.319,316.97 308.5,315.5C 307.479,316.002 307.312,316.668 308,317.5C 309.277,319.747 310.777,321.747 312.5,323.5C 311.292,324.234 309.959,324.567 308.5,324.5C 310.086,335.969 305.752,344.136 295.5,349C 283.167,349.667 270.833,349.667 258.5,349C 249.086,344.007 245.086,336.174 246.5,325.5C 221.167,325.5 195.833,325.5 170.5,325.5C 169.732,326.263 169.232,327.263 169,328.5C 168.5,327.333 167.667,326.5 166.5,326C 168.349,324.907 170.016,323.574 171.5,322C 169.536,321.376 167.869,321.876 166.5,323.5C 165.914,323.291 165.414,322.957 165,322.5C 163.647,323.685 162.48,325.019 161.5,326.5C 161.167,326.167 160.833,325.833 160.5,325.5C 163.995,323.245 164.162,320.912 161,318.5C 158.724,320.307 158.557,321.807 160.5,323C 159.241,323.982 157.908,324.315 156.5,324C 157.634,322.984 157.301,322.317 155.5,322C 157.847,320.809 158.68,318.976 158,316.5C 157.667,317.5 157.333,318.5 157,319.5C 155.316,317.541 153.316,317.541 151,319.5C 151.167,321.333 151.333,323.167 151.5,325C 149.659,327.596 147.493,329.096 145,329.5C 143.242,328.531 142.742,327.364 143.5,326C 142.216,325.316 141.049,325.483 140,326.5C 139.374,324.009 138.541,324.009 137.5,326.5C 134.733,324.481 132.067,322.314 129.5,320C 130.167,319.667 130.833,319.333 131.5,319C 129.833,318.667 128.167,318.333 126.5,318C 128.878,317.026 128.544,316.359 125.5,316C 128.208,314.931 130.875,313.764 133.5,312.5C 133.843,317.571 135.843,318.571 139.5,315.5C 139.291,314.914 138.957,314.414 138.5,314C 140.578,311.866 142.412,312.032 144,314.5C 146.577,313.729 149.077,312.729 151.5,311.5C 149.388,311.756 147.055,311.422 144.5,310.5C 143.328,310.081 142.328,309.415 141.5,308.5C 140.494,308.938 140.494,309.604 141.5,310.5C 140.672,311.415 139.672,312.081 138.5,312.5C 136.792,310.309 134.792,309.976 132.5,311.5C 132.167,310.833 131.833,310.167 131.5,309.5C 129.902,310.485 128.235,310.651 126.5,310C 128.935,309.147 131.269,308.147 133.5,307C 130.258,306.717 129.924,305.883 132.5,304.5C 130.69,304.577 129.356,303.41 128.5,301C 130.871,300.265 133.205,299.432 135.5,298.5C 137.422,299.711 139.255,301.044 141,302.5C 141.49,298.466 141.823,294.466 142,290.5C 142.308,291.308 142.808,291.975 143.5,292.5C 145.979,290.924 148.646,289.924 151.5,289.5C 151.5,290.5 151.5,291.5 151.5,292.5C 149.712,292.215 148.045,292.548 146.5,293.5C 150.78,294.451 154.114,292.951 156.5,289C 155.167,289 153.833,289 152.5,289C 153.453,287.045 154.787,285.378 156.5,284C 155.663,282.989 155.33,281.822 155.5,280.5C 161.244,268.486 158.244,259.319 146.5,253C 133.75,250.046 125.416,254.879 121.5,267.5C 120.842,268.398 120.176,269.398 119.5,270.5C 118.784,269.104 118.617,267.438 119,265.5C 113.922,269.545 113.422,269.045 117.5,264C 116.167,264 114.833,264 113.5,264C 111.545,261.674 109.545,259.341 107.5,257C 110.16,256.134 112.327,254.634 114,252.5C 114.5,252.833 115,253.167 115.5,253.5C 113.934,256.494 114.601,257.494 117.5,256.5C 119.539,257.277 120.205,258.443 119.5,260C 123.506,259.233 123.506,257.899 119.5,256C 119.833,255.667 120.167,255.333 120.5,255C 118.699,254.683 118.366,254.016 119.5,253C 118.026,251.684 116.359,250.684 114.5,250C 116,249.5 117.5,249 119,248.5C 120.762,248.944 120.595,249.444 118.5,250C 123.496,249.828 123.496,248.495 118.5,246C 119.701,245.097 120.535,243.931 121,242.5C 123.173,245.277 123.673,245.11 122.5,242C 123.667,241.5 124.5,240.667 125,239.5C 125.711,241.494 127.378,243.161 130,244.5C 131.871,243.003 132.871,241.003 133,238.5C 134.549,241.918 137.216,243.918 141,244.5C 141.456,243.256 140.956,242.423 139.5,242C 140.025,241.308 140.692,240.808 141.5,240.5C 142.807,241.816 144.307,242.816 146,243.5C 149.584,241.1 149.251,239.434 145,238.5C 142.275,239.245 142.275,238.245 145,235.5C 145.333,235.833 145.667,236.167 146,236.5C 147.667,235.5 149,234.167 150,232.5C 151.098,233.967 152.598,234.801 154.5,235C 152.122,235.974 152.456,236.641 155.5,237C 155.167,237.333 154.833,237.667 154.5,238C 156.99,238.495 158.49,239.995 159,242.5C 159.286,240.001 159.119,237.835 158.5,236C 160.635,234.619 162.968,233.619 165.5,233C 166.167,231 167.5,229.667 169.5,229C 193.833,228.333 218.167,228.333 242.5,229C 243.833,230 245.167,231 246.5,232C 246.167,232.333 245.833,232.667 245.5,233C 247.847,235.444 250.514,236.444 253.5,236C 252.672,236.915 251.672,237.581 250.5,238C 251.167,238.333 251.833,238.667 252.5,239C 250.365,240.381 248.032,241.381 245.5,242C 246.308,242.308 246.975,242.808 247.5,243.5C 246.092,244.243 244.759,245.077 243.5,246C 245.982,246.677 247.815,245.844 249,243.5C 250.067,244.191 251.234,244.691 252.5,245C 252.167,245.333 251.833,245.667 251.5,246C 253.863,246.589 254.863,248.089 254.5,250.5C 255.873,250.657 257.207,250.49 258.5,250C 261.277,247.827 261.11,247.327 258,248.5C 257.228,247.151 256.061,246.318 254.5,246C 255.167,245.667 255.833,245.333 256.5,245C 257.907,245.721 259.907,246.221 262.5,246.5C 262.167,249.5 263.5,250.833 266.5,250.5C 266.439,248.408 265.439,246.908 263.5,246C 264.543,244.024 265.877,243.524 267.5,244.5C 266.371,246.529 266.871,246.863 269,245.5C 270.646,247.055 270.979,248.721 270,250.5C 271.751,248.51 272.751,246.177 273,243.5C 274,246.167 275,246.167 276,243.5C 276.333,243.833 276.667,244.167 277,244.5C 277.492,243.451 277.326,242.451 276.5,241.5C 277,241.167 277.5,240.833 278,240.5C 280.918,239.506 281.084,240.006 278.5,242C 279.766,242.309 280.933,242.809 282,243.5C 283.028,241.639 284.528,240.305 286.5,239.5C 287.711,240.274 287.711,241.107 286.5,242C 288.706,242.732 290.372,242.065 291.5,240C 288.588,239.155 287.588,237.488 288.5,235C 290.513,234.691 290.846,235.358 289.5,237C 290.5,237.5 291.5,238 292.5,238.5C 292.749,237.418 292.915,236.085 293,234.5C 293.833,233.5 294.667,232.5 295.5,231.5C 297.271,232.035 297.604,232.869 296.5,234C 299.101,236.498 300.435,235.998 300.5,232.5C 302.661,232.509 303.994,233.176 304.5,234.5C 306.867,232.502 309.367,231.502 312,231.5C 312.973,233.64 314.473,235.307 316.5,236.5C 314.615,237.197 314.282,238.197 315.5,239.5C 313.887,240.427 312.221,241.261 310.5,242C 313.593,242.07 316.593,241.736 319.5,241C 318.167,242 318.167,243 319.5,244C 317.754,244.471 316.087,245.138 314.5,246C 320.38,247.078 321.38,249.578 317.5,253.5C 316.289,252.726 316.289,251.893 317.5,251C 315.711,250.48 314.044,250.813 312.5,252C 314.167,253 315.833,254 317.5,255C 316.234,255.309 315.067,255.809 314,256.5C 313.667,255.833 313.333,255.167 313,254.5C 312.535,255.931 311.701,257.097 310.5,258C 312.359,258.684 314.026,259.684 315.5,261C 312.605,262.313 309.605,263.48 306.5,264.5C 305.304,264.154 305.304,263.654 306.5,263C 304.905,263.617 303.572,263.284 302.5,262C 303.016,259.967 302.35,259.967 300.5,262C 301.551,263.385 302.884,264.385 304.5,265C 302.136,268.369 300.636,267.869 300,263.5C 298.853,264.458 297.853,264.125 297,262.5C 296.79,264.058 296.29,265.391 295.5,266.5 Z"/></g>
<g><path style="opacity:1" fill="#09925c" d="M 295.5,266.5 C 295.666,280.667 288.666,288.001 274.5,288.5C 268.471,287.314 263.971,283.98 261,278.5C 256.771,267.544 259.604,259.044 269.5,253C 282.136,249.818 290.803,254.318 295.5,266.5 Z"/></g>
<g><path style="opacity:1" fill="#0a915d" d="M 155.5,280.5 C 154.023,282.807 152.023,284.64 149.5,286C 132.401,291.616 123.067,285.449 121.5,267.5C 125.416,254.879 133.75,250.046 146.5,253C 158.244,259.319 161.244,268.486 155.5,280.5 Z"/></g>
<g><path style="opacity:0.039" fill="#2b4638" d="M 22.5,344.5 C 23.937,349.478 25.6037,354.478 27.5,359.5C 26.6236,359.631 25.9569,359.298 25.5,358.5C 23.0415,354.204 22.0415,349.537 22.5,344.5 Z"/></g>
<g><path style="opacity:0.293" fill="#2c332f" d="M 385.5,39.5 C 388.256,41.2001 390.423,43.5334 392,46.5C 394.084,52.5422 396.084,58.5422 398,64.5C 398.667,158.167 398.667,251.833 398,345.5C 395.421,357.921 389.587,368.588 380.5,377.5C 371.712,384.818 361.712,389.152 350.5,390.5C 349.167,390.5 347.833,390.5 346.5,390.5C 371.172,385.833 387.172,371.5 394.5,347.5C 395.29,346.391 395.79,345.058 396,343.5C 396.832,250.666 396.666,157.999 395.5,65.5C 394.32,55.9527 390.987,47.286 385.5,39.5 Z"/></g>
<g><path style="opacity:0.146" fill="#2d3330" d="M 33.5,369.5 C 38.3742,374.541 43.7075,379.041 49.5,383C 56.0214,386.225 62.6881,388.725 69.5,390.5C 56.2262,389.613 45.0595,384.28 36,374.5C 34.9055,372.922 34.0722,371.255 33.5,369.5 Z"/></g>
<g><path style="opacity:0.52" fill="#2e2d2d" d="M 69.5,390.5 C 161.833,390.5 254.167,390.5 346.5,390.5C 347.833,390.5 349.167,390.5 350.5,390.5C 304.171,391.833 257.505,392.5 210.5,392.5C 163.833,392.333 117.167,392.167 70.5,392C 69.944,391.617 69.6107,391.117 69.5,390.5 Z"/></g>
</svg>
